<?xml version="1.0" encoding="utf-8"?>
<!-- Generator: Adobe Illustrator 19.1.0, SVG Export Plug-In . SVG Version: 6.00 Build 0)  -->
<svg version="1.1" id="Layer_1" xmlns="http://www.w3.org/2000/svg" xmlns:xlink="http://www.w3.org/1999/xlink" x="0px" y="0px"
	 viewBox="-422 860.1 234.9 201.9" style="enable-background:new -422 860.1 234.9 201.9;" xml:space="preserve">
<style type="text/css">
	.st0{font-family:'Marion-Regular';}
	.st1{font-size:36px;}
	.st2{fill:#FFFFFF;stroke:#000000;stroke-miterlimit:10;}
	.st3{fill:none;stroke:#000000;stroke-width:3;stroke-miterlimit:10;}
	.st4{font-size:12px;}
</style>
<text transform="matrix(1 0 0 1 -333.2645 951.2913)" class="st0 st1">T.G.</text>
<path class="st2" d="M-205.8,1090.3"/>
<path class="st3" d="M-280.5,1012.8l-49.4,0.3c-2.9,0-5.5-1.5-6.9-4l-24.9-42.7c-1.4-2.5-1.5-5.5,0-8l24.5-42.9c1.4-2.5,4.1-4,6.9-4
	l49.4-0.2c2.9,0,5.5,1.5,6.9,4l24.9,42.7c1.4,2.5,1.5,5.5,0,8l-24.5,42.9C-275,1011.3-277.7,1012.8-280.5,1012.8z"/>
<path class="st2" d="M-374.1,1010.8"/>
<path class="st2" d="M-231.4,1010.8"/>
<path class="st3" d="M-352.5,873.2l93.5-0.6c2.9,0,5.5,1.5,7,4l47.3,80.7c1.4,2.5,1.5,5.5,0.1,8l-46.2,81.3c-1.4,2.5-4,4-6.9,4
	l-93.5,0.6c-2.9,0-5.5-1.5-7-4l-47.3-80.7c-1.4-2.5-1.5-5.5-0.1-8l46.2-81.3C-358,874.8-355.3,873.2-352.5,873.2z"/>
<line class="st3" x1="-397.8" y1="943.1" x2="-331.6" y2="1051"/>
<line class="st3" x1="-386.4" y1="961.7" x2="-334.6" y2="873.1"/>
<line class="st3" x1="-343" y1="888.3" x2="-245" y2="888.3"/>
<line class="st3" x1="-266.2" y1="888.3" x2="-213.2" y2="980.3"/>
<path class="st3" d="M-283,1051.2"/>
<path class="st3" d="M-271.4,1050.7"/>
<line class="st3" x1="-344" y1="1031.5" x2="-261.4" y2="1030.8"/>
<line class="st3" x1="-271.4" y1="1050.7" x2="-225.3" y2="959.2"/>
<text transform="matrix(1 0 0 1 -342.2438 969.7964)" class="st0 st4">Graphic Design</text>
<text transform="matrix(1 0 0 1 -307.9438 981.7964)" class="st0 st4">&amp;</text>
<text transform="matrix(1 0 0 1 -336.0438 993.7964)" class="st0 st4">Web Services</text>
</svg>
